<?xml version="1.0" encoding="utf-8"?>
<!-- Generator: Adobe Illustrator 26.5.0, SVG Export Plug-In . SVG Version: 6.00 Build 0)  -->
<svg version="1.1"
	 id="svg22775" xmlns:inkscape="http://www.inkscape.org/namespaces/inkscape" xmlns:svg="http://www.w3.org/2000/svg" xmlns:cc="http://creativecommons.org/ns#" xmlns:sodipodi="http://sodipodi.sourceforge.net/DTD/sodipodi-0.dtd" xmlns:dc="http://purl.org/dc/elements/1.1/" xmlns:rdf="http://www.w3.org/1999/02/22-rdf-syntax-ns#"
	 xmlns="http://www.w3.org/2000/svg" xmlns:xlink="http://www.w3.org/1999/xlink" x="0px" y="0px" viewBox="0 0 103.2 29.8"
	 style="enable-background:new 0 0 103.2 29.8;" xml:space="preserve">
<style type="text/css">
	.st0{fill:#ABDD6F;}
	.st1{fill:#99D658;}
	.st2{fill:#7DCC33;}
	.st3{fill:#C2E690;}
	.st4{fill:#393536;}
</style>
<sodipodi:namedview  bordercolor="#666666" borderopacity="1.0" fit-margin-bottom="0" fit-margin-left="0" fit-margin-right="0" fit-margin-top="0" id="base" inkscape:current-layer="layer1" inkscape:cx="51.119666" inkscape:cy="14.380066" inkscape:document-units="mm" inkscape:pageopacity="0.0" inkscape:pageshadow="2" inkscape:window-height="744" inkscape:window-maximized="1" inkscape:window-width="1280" inkscape:window-x="-4" inkscape:window-y="-4" inkscape:zoom="7.8443393" pagecolor="#ffffff" showgrid="false" units="px">
	</sodipodi:namedview>
<g id="g21887" transform="matrix(0.35277777,0,0,-0.35277777,91.965047,211.92518)">
	<g id="g21893" transform="translate(38.5621,112.0889)">
		<path id="path21895" inkscape:connector-curvature="0" class="st0" d="M-293.4,445.2c0-3.9,0-7.7,0-11h28.7c0,3.3,0,7.1,0,11
			H-293.4z"/>
	</g>
	<g id="g21897" transform="translate(38.6071,115.9253)">
		<path id="path21899" inkscape:connector-curvature="0" class="st1" d="M-293.3,455.9c0-3.4-0.1-7.2-0.1-11h28.6
			c0,3.9-0.1,7.6-0.1,11H-293.3z"/>
	</g>
	<g id="g21901" transform="translate(45.3085,121.2995)">
		<path id="path21903" inkscape:connector-curvature="0" class="st2" d="M-274.7,470.8h-6.2v7.1c-1.6,0.1-3.3,0.1-5,0.1
			c-1.7,0-3.4,0-5-0.1v-7.1h-6.2v6.7c-2.7-0.3-5.2-0.6-7.5-1c0,0,0,0,0-0.1c0-4.4,0.7-10.5,1.1-10.9l3.7-4c0,0-0.1-3-0.1-7.6h28.2
			c-0.1,4.6-0.1,7.6-0.1,7.6l3.7,4c0.3,0.3,1.1,6.5,1.1,10.9c0,0,0,0,0,0.1c-2.3,0.4-4.9,0.8-7.5,1V470.8z"/>
	</g>
	<g id="g21905" transform="translate(38.6606,106.6252)">
		<path id="path21907" inkscape:connector-curvature="0" class="st3" d="M-293.2,430c3.4-1.1,9-1.9,14-1.9c3.6,0,10.6,0.9,14,1.9
			c0.2,0.1,0.3,2.4,0.4,6.1h-28.6C-293.5,432.5-293.4,430.1-293.2,430"/>
	</g>
</g>
<g>
	<path class="st4" d="M49.1,0.7H46v5.8h-2.8v2.7H46v9.9c0,3.1,1.4,4.4,4.8,4.4c0.9,0,1.9-0.1,2.4-0.2l0.2,0v-2.7L53,20.6
		c-0.4,0.1-1.1,0.2-1.6,0.2c-1.7,0-2.3-0.6-2.3-2.3V9.2h4.2V6.5h-4.2V0.7z"/>
	<path class="st4" d="M36.7,6.2c-2.1,0-4,0.8-5.8,2.4V6.5h-3.2v16.7h3.2V11.4c1.9-1.7,3.4-2.5,5-2.5c1.9,0,2.7,0.9,2.7,2.9v11.4h3.1
		v-12C41.7,8,39.9,6.2,36.7,6.2z"/>
	<rect x="21" y="6.5" class="st4" width="3.1" height="16.7"/>
	<path class="st4" d="M22.6,0.4C21.7,0.4,21,1.1,21,2s0.7,1.6,1.6,1.6s1.6-0.7,1.6-1.6S23.5,0.4,22.6,0.4z"/>
	<path class="st4" d="M62.2,6.2c-3.7,0-7.6,2.7-7.6,8.7c0,6,3.8,8.7,7.6,8.7c2.9,0,5.1-1.2,6.8-3.6l0.1-0.2l-1.9-1.7L67,18.4
		c-1.1,1.5-2.3,2.5-4.7,2.5c-2.7,0-4.5-2-4.6-5.1h11.5V15C69.2,9.5,66.6,6.2,62.2,6.2z M57.8,13.3c0.5-3.2,2.5-4.4,4.3-4.4
		c3,0,3.8,2.6,4,4.4H57.8z"/>
	<path class="st4" d="M95.2,6.2c-3.9,0-7.8,2.7-7.8,8.7c0,4.2,2.4,8.7,7.8,8.7c5.4,0,7.8-4.5,7.8-8.7C103,8.9,99.1,6.2,95.2,6.2z
		 M99.8,14.9c0,3.7-1.8,6-4.6,6c-3.4,0-4.6-3.1-4.6-6c0-3.7,1.8-5.9,4.6-5.9C98.6,9,99.8,12.2,99.8,14.9z"/>
	<path class="st4" d="M82.5,7.8c-1.3-1-3-1.6-4.8-1.6c-4,0-6.9,2.6-6.9,6.1c0,1.9,0.8,3.6,2.3,4.7c-1.2,0.8-1.8,1.7-1.8,2.6
		c0,0.9,0.4,1.6,1.1,2c-1.7,0.8-2.6,2.1-2.6,3.6c0,2,1.4,4.3,8.1,4.3c5.1,0,8.2-1.9,8.2-5c0-2.7-2.1-4.2-6.4-4.5l-3.3-0.3
		c-1.9-0.2-2-0.5-2-0.9c0-0.4,0.3-0.7,0.9-1c0.9,0.3,1.7,0.4,2.6,0.4c4,0,6.8-2.5,6.8-6c0-1-0.2-1.9-0.7-2.7
		c0.8-0.3,1.7-0.4,2.5-0.4h0.2V6.3l-0.3,0C85,6.5,83.5,7.1,82.5,7.8z M78.2,27c-4.9,0-5.5-1.2-5.5-2.2c0-1,0.8-1.9,2.2-2.4l4,0.3
		c3.6,0.3,4.3,1,4.3,2.1C83.1,26.1,81.1,27,78.2,27z M81.5,12.3c0,2.2-1.5,3.5-3.8,3.5c-2.4,0-3.9-1.4-3.9-3.5
		c0-2.2,1.5-3.6,3.8-3.6C80.1,8.7,81.5,10.1,81.5,12.3z"/>
</g>
</svg>
