<?xml version="1.0" encoding="utf-8"?>
<!-- Generator: Adobe Illustrator 26.5.0, SVG Export Plug-In . SVG Version: 6.00 Build 0)  -->
<svg version="1.1" id="Layer_1" xmlns="http://www.w3.org/2000/svg" xmlns:xlink="http://www.w3.org/1999/xlink" x="0px" y="0px"
	 viewBox="0 0 781.2 128.7" style="enable-background:new 0 0 781.2 128.7;" xml:space="preserve">
<style type="text/css">
	.st0{fill:#C01818;}
	.st1{fill:#75160D;}
</style>
<g id="Layer_2_00000083068000849333303040000006107810921192588420_">
	<g id="svg8">
		<g id="layer1">
			<path id="path6847" class="st0" d="M395,104l-21.4-12.6l-1.5,2.5c-4.8,7.7-11.5,11.5-19.7,11.5c-14.2,0-24.7-10.7-24.7-24.7
				c0-14.2,10.7-24.7,24.7-24.7c8.4,0,14.5,3.6,19.7,11.5l1.5,2.5L395,57.4l-1.9-2.7c-10.3-14.9-23.5-22-41-22
				c-32.7,0-50.3,24.9-50.3,48.2s17.6,48.2,50.3,48.2c16.6,0.1,32-8.3,41-22.2L395,104z"/>
			<path id="path6849" class="st0" d="M393.8,128.7h29.5l8.8-21.8h44.2l8.8,21.8h29.7L462,1h-26.4l7.1,17L393.8,128.7 M454.5,51.3
				l11.9,30h-24.1L454.5,51.3z"/>
			<path id="path6851" class="st0" d="M527,128.8h25.8V71.4h16.8V47.3h-16.8V36c0-5,3.3-10.1,9.4-10.1c2.5,0,5,0.4,7.3,1.3l2.9,1.1
				l10.7-23.5l-2.9-1c-4.8-1.9-11.5-2.7-16.3-2.7c-11.7,0-21.4,3.8-27.9,11.1c-5.7,6.3-9,15.1-9,24.9v10.3h-11.5v24.1H527V128.8z"/>
			<polygon id="polygon6853" class="st0" points="208,128.7 208,55.2 235.4,75.4 262.5,55.2 262.5,128.7 290.7,128.7 290.7,0.2 
				235.4,42 179.9,0.2 179.9,128.5 			"/>
			<path id="path6855" class="st0" d="M628.1,32.6c-32.5,0-50.1,24.7-50.1,48s17.6,48,50.1,48c14.9-0.2,28.9-6.9,39.8-19.3
				l-21.1-11.5c-5,5.4-12,8.4-19.3,8.4c-10.7,0-20.1-7.1-22.6-16.5h70.4v-6.3C675.6,48.5,647.8,32.8,628.1,32.6L628.1,32.6z
				 M605.5,68.9c3.4-8.8,10.7-13.8,20.1-13.8c9.6,0,17,5,20.9,14L605.5,68.9z"/>
			<path id="path6857" class="st0" d="M733.9,32.8c-32.5,0-50.1,24.7-50.1,48s17.6,48,50.1,48c14.9-0.2,28.9-6.9,39.8-19.3L752.6,98
				c-5,5.4-12,8.4-19.3,8.4c-10.7,0-20.1-7.1-22.6-16.5h70.5v-6.3C781.4,48.7,753.6,32.8,733.9,32.8L733.9,32.8z M711.3,68.9
				c3.4-8.8,10.7-14,20.1-13.8c9.6,0,17,5,20.9,14L711.3,68.9z"/>
			<polygon id="polygon6863" class="st0" points="0,0 0,102.9 55.8,128.7 55.8,103.5 22.9,88.2 22.9,35.9 55.8,51.2 55.8,25.9 			
				"/>
			<polygon id="polygon6865" class="st1" points="111.9,0 111.9,102.9 55.8,128.7 55.8,103.5 89,88.2 89,35.9 55.8,51.2 55.8,25.9 
							"/>
		</g>
	</g>
</g>
</svg>
